<svg xmlns="http://www.w3.org/2000/svg" viewBox="0 0 1678.79 1678.79"><title>logo-dark</title><path d="M1618.27,510.86A303.33,303.33,0,0,1,1385.79,619c-167.89,0-304-136.11-304-304A303.32,303.32,0,0,1,1189.93,82.52,836.46,836.46,0,0,0,850.4,11C386.81,11,11,386.81,11,850.39a839.92,839.92,0,0,0,32.1,230.67C108.74,918.62,267.93,804,453.9,804c244.6,0,442.89,198.29,442.89,442.9,0,186-114.62,345.16-277.07,410.8a839.92,839.92,0,0,0,230.67,32.1c463.58,0,839.4-375.81,839.4-839.4A836.46,836.46,0,0,0,1618.27,510.86Z" transform="translate(-11 -11)"/><circle cx="454" cy="1231" r="296"/><circle cx="1333" cy="352" r="193"/></svg>